<?xml version="1.0" encoding="utf-8"?>
<!-- Generator: Adobe Illustrator 23.0.3, SVG Export Plug-In . SVG Version: 6.00 Build 0)  -->
<svg version="1.1" id="Layer_1" xmlns="http://www.w3.org/2000/svg" xmlns:xlink="http://www.w3.org/1999/xlink" x="0px" y="0px"
	 viewBox="0 0 512 512" style="enable-background:new 0 0 512 512;" xml:space="preserve">
<style type="text/css">
	.st0{fill:#00E6B2;}
	.st1{fill:#FF18A4;}
	.st2{fill:#5B25B9;}
</style>
<g>
	<circle class="st0" cx="440.5" cy="128" r="72.5"/>
	<circle class="st1" cx="200" cy="200.5" r="75.4"/>
	<circle class="st2" cx="230.7" cy="406" r="37.7"/>
</g>
<g id="Outline">
	<g>
		<circle cx="56" cy="56" r="8"/>
		<circle cx="88" cy="56" r="8"/>
		<circle cx="120" cy="56" r="8"/>
		<path d="M192,48c-4.4,0-8,3.6-8,8s3.6,8,8,8h72c4.4,0,8-3.6,8-8s-3.6-8-8-8H192z"/>
		<path d="M312,48c-4.4,0-8,3.6-8,8s3.6,8,8,8h120c4.4,0,8-3.6,8-8s-3.6-8-8-8H312z"/>
		<path d="M488,288c-4.4,0-8,3.6-8,8v184H32V192c0-4.4-3.6-8-8-8s-8,3.6-8,8v296c0,4.4,3.6,8,8,8h464c4.4,0,8-3.6,8-8V296
			C496,291.6,492.4,288,488,288z"/>
		<path d="M488,16H24c-4.4,0-8,3.6-8,8v136c0,4.4,3.6,8,8,8s8-3.6,8-8V96h424c4.4,0,8-3.6,8-8s-3.6-8-8-8H160V32h320v192H194.6
			c-4.4,0-8,3.6-8,8s3.6,8,8,8H480v24c0,4.4,3.6,8,8,8s8-3.6,8-8V24C496,19.6,492.4,16,488,16z M144,80H32V32h112V80z"/>
		<path d="M84.8,265.8L84.8,265.8c17.1,8.1,37,8.1,54.1,0l0,0c32-15,45.8-53.1,30.7-85.1c-15-32-53.1-45.8-85.1-30.7
			s-45.8,53.1-30.7,85.1c6.3,13.5,17.2,24.4,30.7,30.7H84.8z M112,224c-8.8,0-16-7.2-16-16s7.2-16,16-16s16,7.2,16,16
			S120.8,224,112,224z M96,253.2V248c0-4.4,3.6-8,8-8h16c4.4,0,8,3.6,8,8v5.2C117.7,256.9,106.3,256.9,96,253.2z M112,160
			c26.5-0.2,48.2,21.1,48.3,47.7c0.1,13.9-5.9,27.2-16.3,36.4c-0.9-5.6-3.7-10.7-8-14.4c12.1-12.9,11.4-33.2-1.5-45.2
			c-12.9-12.1-33.2-11.4-45.2,1.5c-11.5,12.3-11.5,31.4,0,43.7c-4.3,3.7-7.1,8.8-8,14.4c-19.9-17.5-21.9-47.8-4.4-67.7
			C85.7,166.2,98.5,160.3,112,160z"/>
		<path d="M224,136h8c4.4,0,8-3.6,8-8c0-4.4-3.6-8-8-8h-8c-13.3,0-24,10.7-24,24v8h-8c-4.4,0-8,3.6-8,8s3.6,8,8,8h8v24
			c0,4.4,3.6,8,8,8s8-3.6,8-8v-24h8c4.4,0,8-3.6,8-8s-3.6-8-8-8h-8v-8C216,139.6,219.6,136,224,136z"/>
		<path d="M312,200c13.3,0,24-10.7,24-24v-32c0-13.3-10.7-24-24-24h-32c-13.3,0-24,10.7-24,24v32c0,13.3,10.7,24,24,24H312z
			 M272,176v-32c0-4.4,3.6-8,8-8h32c4.4,0,8,3.6,8,8v32c0,4.4-3.6,8-8,8h-32C275.6,184,272,180.4,272,176z"/>
		<circle cx="296" cy="160" r="8"/>
		<path d="M403.9,200c2.1,0,4.2-0.8,5.7-2.3l31.4-31.4c10.6-10.6,10.6-27.7,0-38.3c-10.3-9.8-26.3-10.3-37.1-1.1
			c-11.4-9.7-28.6-8.2-38.2,3.2c-8.9,10.6-8.5,26.2,1.1,36.2l31.4,31.4C399.7,199.2,401.8,200,403.9,200z M374.9,147
			c-0.1-3,1.1-5.9,3.3-8c2.1-2.1,5-3.3,8-3.3c3,0,5.9,1.1,8,3.2l4.5,4.6c3.1,3.1,8.2,3.2,11.3,0c0,0,0,0,0,0l4.5-4.5
			c4.4-4.4,11.6-4.4,16,0c2.1,2.1,3.3,5,3.2,8c0.1,3-1.1,5.9-3.2,8l-25.8,25.8L378.9,155C376.5,153.1,375,150.1,374.9,147L374.9,147
			z"/>
		<path d="M48,336c0,4.4,3.6,8,8,8h112c4.4,0,8-3.6,8-8v-32c0-4.4-3.6-8-8-8H56c-4.4,0-8,3.6-8,8V336z M64,312h96v16H64V312z"/>
		<path d="M56,376h112c4.4,0,8-3.6,8-8s-3.6-8-8-8H56c-4.4,0-8,3.6-8,8S51.6,376,56,376z"/>
		<path d="M56,408h112c4.4,0,8-3.6,8-8s-3.6-8-8-8H56c-4.4,0-8,3.6-8,8S51.6,408,56,408z"/>
		<path d="M56,440h112c4.4,0,8-3.6,8-8s-3.6-8-8-8H56c-4.4,0-8,3.6-8,8S51.6,440,56,440z"/>
		<path d="M232,288c-4.4,0-8,3.6-8,8s3.6,8,8,8h208c4.4,0,8-3.6,8-8v-32c0-4.4-3.6-8-8-8H232c-4.4,0-8,3.6-8,8s3.6,8,8,8h200v16H232
			z"/>
		<path d="M232,392c-4.4,0-8,3.6-8,8v24c0,4.4,3.6,8,8,8h208c4.4,0,8-3.6,8-8v-96c0-4.4-3.6-8-8-8H232c-4.4,0-8,3.6-8,8v40
			c0,4.4,3.6,8,8,8s8-3.6,8-8v-32h192v80h-43l-21.8-43.6c-2-3.9-6.8-5.5-10.8-3.5c-1.5,0.8-2.7,2-3.5,3.5l-8.9,17.7l-16.9-33.7
			c-2-3.9-6.8-5.5-10.8-3.5c-1.5,0.8-2.7,2-3.5,3.5L296,390.1l-8.9-17.7c-2-3.9-6.8-5.5-10.8-3.5c-1.5,0.8-2.7,2-3.5,3.5L251,416
			h-11v-16C240,395.6,236.4,392,232,392z M360,393.9l11,22.1H357l-4-8L360,393.9z M320,377.9l19,38.1H301L320,377.9z M280,393.9
			l7,14.1l-4,8H269L280,393.9z"/>
		<circle cx="392" cy="360" r="8"/>
		<path d="M232,464h128c4.4,0,8-3.6,8-8s-3.6-8-8-8H232c-4.4,0-8,3.6-8,8S227.6,464,232,464z"/>
		<path d="M440,448h-32c-4.4,0-8,3.6-8,8s3.6,8,8,8h32c4.4,0,8-3.6,8-8S444.4,448,440,448z"/>
	</g>
</g>
</svg>
